<svg xmlns="http://www.w3.org/2000/svg" viewBox="0 0 2380 372" role="img" aria-label="INTI International University &amp; Colleges">
  <title>INTI International University &amp; Colleges</title>
  <g transform="translate(0,12) scale(0.95)"><path fill="#EC1C24" d="M120.5,5.0 L142.3,7.7 L158.3,50.8 L164.6,88.7 L165.2,92.3 L174.3,99.7 L187.3,84.4 L224.0,45.5 L229.1,56.8 L211.7,92.1 L187.3,118.0 L213.2,109.1 L207.2,124.3 L230.9,128.3 L291.9,125.2 L289.0,143.6 L235.8,159.3 L203.8,162.0 L211.5,170.3 L196.3,173.7 L214.1,192.4 L244.8,226.8 L234.5,233.4 L197.5,206.9 L184.1,196.1 L182.6,212.1 L174.6,204.8 L172.4,235.1 L168.5,298.8 L143.8,296.6 L129.3,247.5 L124.5,215.1 L132.5,203.2 L120.6,200.2 L100.6,219.7 L67.8,245.5 L61.7,232.7 L84.0,197.0 L106.9,177.2 L89.8,167.5 L89.0,164.9 L65.4,153.9 L10.2,143.2 L20.0,125.6 L63.2,118.5 L96.4,122.5 L97.4,121.5 L111.9,122.4 L96.6,103.2 L67.1,63.2 L78.0,59.9 L110.7,88.7 L122.3,103.3 L121.9,81.9 L123.0,94.8 L116.7,60.7 Z"/></g>
  <g font-family="Arial,Helvetica,'Helvetica Neue','Liberation Sans',sans-serif" lengthAdjust="spacingAndGlyphs">
    <text x="326" y="208" font-size="238" font-weight="900" fill="#111111" textLength="440">INTI</text>
    <text x="800" y="196" font-size="162" font-weight="700" fill="#58595B" textLength="860">International</text>
    <text x="800" y="348" font-size="162" font-weight="700" fill="#58595B" textLength="1470">University &amp; Colleges</text>
    <text x="2282" y="268" font-size="56" font-weight="700" fill="#58595B" textLength="78">TM</text>
  </g>
</svg>
